<?xml version="1.0" encoding="UTF-8" standalone="no"?>
<!-- Created with Inkscape (http://www.inkscape.org/) -->

<svg
   xmlns:dc="http://purl.org/dc/elements/1.1/"
   xmlns:cc="http://creativecommons.org/ns#"
   xmlns:rdf="http://www.w3.org/1999/02/22-rdf-syntax-ns#"
   xmlns:svg="http://www.w3.org/2000/svg"
   xmlns="http://www.w3.org/2000/svg"
   xmlns:sodipodi="http://sodipodi.sourceforge.net/DTD/sodipodi-0.dtd"
   xmlns:inkscape="http://www.inkscape.org/namespaces/inkscape"
   width="1000"
   height="1000"
   viewBox="0 0 264.58333 264.58334"
   version="1.1"
   id="svg8"
   inkscape:version="0.92.2 (unknown)"
   sodipodi:docname="reset_search_icon.svg">
  <defs
     id="defs2" />
  <sodipodi:namedview
     id="base"
     pagecolor="#ffffff"
     bordercolor="#666666"
     borderopacity="1.0"
     inkscape:pageopacity="0.0"
     inkscape:pageshadow="2"
     inkscape:zoom="0.4253008"
     inkscape:cx="281.11447"
     inkscape:cy="230.73148"
     inkscape:document-units="mm"
     inkscape:current-layer="layer1"
     showgrid="false"
     inkscape:window-width="1865"
     inkscape:window-height="1056"
     inkscape:window-x="55"
     inkscape:window-y="24"
     inkscape:window-maximized="1"
     units="px" />
  <metadata
     id="metadata5">
    <rdf:RDF>
      <cc:Work
         rdf:about="">
        <dc:format>image/svg+xml</dc:format>
        <dc:type
           rdf:resource="http://purl.org/dc/dcmitype/StillImage" />
        <dc:title></dc:title>
      </cc:Work>
    </rdf:RDF>
  </metadata>
  <g
     inkscape:label="Layer 1"
     inkscape:groupmode="layer"
     id="layer1"
     transform="translate(0,-32.41665)">
    <g
       id="g1306"
       transform="matrix(13.862467,0,0,13.862467,985.98841,10.385137)">
      <g
         id="g1299">
        <g
           id="g1293">
          <g
             transform="matrix(0.17032559,-0.1692777,0.16467794,0.17508309,-121.0163,22.232238)"
             id="g962">
            <path
               inkscape:connector-curvature="0"
               id="path1287"
               transform="matrix(1.1012618,0,0,1.1012618,465.04171,95.985573)"
               d="m -239.47852,3.3457031 c -0.79877,-0.061829 -1.10101,0.2948754 -1.375,0.5371094 -0.27398,0.2422312 -0.52036,0.5221691 -0.81836,0.8984375 a 1.3449367,1.3449367 0 0 0 -0.041,0.054687 l -5.84961,8.181641 0.0332,-0.04297 c -0.42834,0.549052 -0.72751,1.079597 -0.83203,1.707032 -0.10451,0.627425 0.10271,1.431672 0.62305,1.896483 0.52033,0.464812 1.14519,0.569038 1.6914,0.539063 0.45366,-0.02489 0.8883,-0.163207 1.31641,-0.357422 l 9.20313,-1.796875 c 0.41668,-0.06938 0.77912,-0.151759 1.17773,-0.402343 0.3986,-0.250577 0.83956,-0.888767 0.82422,-1.482422 -0.0154,-0.593655 -0.26752,-0.927759 -0.4668,-1.179687 -0.19928,-0.251921 -0.40386,-0.441392 -0.61523,-0.623047 -0.14742,-0.1267 -0.28138,-0.223914 -0.43164,-0.341797 1.63455,-0.550378 3.34747,-0.9375007 5.2832,-0.9375007 10.49533,0 18.94141,8.4442837 18.94141,18.9394527 0,10.49517 -8.44623,18.941407 -18.94141,18.941407 -9.53069,0 -17.36832,-6.991309 -18.73242,-16.111328 a 1.3449367,1.3449367 0 0 0 -0.002,-0.01172 c -0.12186,-0.770389 -0.57481,-1.462733 -1.16602,-1.845703 -0.59121,-0.382979 -1.26319,-0.488205 -1.88867,-0.394531 -0.62548,0.09367 -1.23833,0.392268 -1.69141,0.93164 -0.45308,0.539373 -0.68341,1.333182 -0.57422,2.105469 a 1.3449367,1.3449367 0 0 0 0.002,0.0098 c 1.56179,10.441774 9.78095,18.707446 20.16797,20.380859 v 31.744141 c 2.98526,2.678445 6.40346,3.190377 10.5625,0 V 52.314453 c 10.16824,-2.912741 17.64257,-12.29239 17.64257,-23.378906 0,-13.40209 -10.91834,-24.3183595 -24.32031,-24.3183595 -3.02163,0 -5.74685,0.7088125 -8.2832,1.75 0.0104,-0.3170908 0.0237,-0.6291115 0.0234,-0.9667969 -2.3e-4,-0.2534093 0.003,-0.4951069 -0.0898,-0.8496094 -0.0468,-0.1772603 -0.11485,-0.3988188 -0.32812,-0.6582031 -0.21328,-0.259377 -0.64554,-0.5159613 -1.04493,-0.546875 z"
               style="color:#000000;font-style:normal;font-variant:normal;font-weight:normal;font-stretch:normal;font-size:medium;line-height:normal;font-family:sans-serif;font-variant-ligatures:normal;font-variant-position:normal;font-variant-caps:normal;font-variant-numeric:normal;font-variant-alternates:normal;font-feature-settings:normal;text-indent:0;text-align:start;text-decoration:none;text-decoration-line:none;text-decoration-style:solid;text-decoration-color:#000000;letter-spacing:normal;word-spacing:normal;text-transform:none;writing-mode:lr-tb;direction:ltr;text-orientation:mixed;dominant-baseline:auto;baseline-shift:baseline;text-anchor:start;white-space:normal;shape-padding:0;clip-rule:nonzero;display:inline;overflow:visible;visibility:visible;opacity:1;isolation:auto;mix-blend-mode:normal;color-interpolation:sRGB;color-interpolation-filters:linearRGB;solid-color:#000000;solid-opacity:1;vector-effect:none;fill:#000000;fill-opacity:1;fill-rule:nonzero;stroke:none;stroke-width:2.68960452;stroke-linecap:round;stroke-linejoin:round;stroke-miterlimit:4;stroke-dasharray:none;stroke-dashoffset:0;stroke-opacity:1;paint-order:markers fill stroke;color-rendering:auto;image-rendering:auto;shape-rendering:auto;text-rendering:auto;enable-background:accumulate" />
            <path
               inkscape:connector-curvature="0"
               id="path1281"
               d="m 188.49609,131.40817 c -0.0286,-0.0185 -0.0451,-0.0821 -0.0312,0.01 -2e-5,-1.6e-4 -0.002,1.5e-4 -0.002,0 -0.0169,-0.11932 -0.0101,-0.0276 -0.0332,0 -0.0231,0.0275 -0.006,0.004 0.0332,-0.002 0.0397,-0.006 0.0634,0.0118 0.0332,-0.008 z"
               style="color:#000000;font-style:normal;font-variant:normal;font-weight:normal;font-stretch:normal;font-size:medium;line-height:normal;font-family:sans-serif;font-variant-ligatures:normal;font-variant-position:normal;font-variant-caps:normal;font-variant-numeric:normal;font-variant-alternates:normal;font-feature-settings:normal;text-indent:0;text-align:start;text-decoration:none;text-decoration-line:none;text-decoration-style:solid;text-decoration-color:#000000;letter-spacing:normal;word-spacing:normal;text-transform:none;writing-mode:lr-tb;direction:ltr;text-orientation:mixed;dominant-baseline:auto;baseline-shift:baseline;text-anchor:start;white-space:normal;shape-padding:0;clip-rule:nonzero;display:inline;overflow:visible;visibility:visible;opacity:1;isolation:auto;mix-blend-mode:normal;color-interpolation:sRGB;color-interpolation-filters:linearRGB;solid-color:#000000;solid-opacity:1;vector-effect:none;fill:#000000;fill-opacity:1;fill-rule:nonzero;stroke:none;stroke-width:2.96195865;stroke-linecap:round;stroke-linejoin:round;stroke-miterlimit:4;stroke-dasharray:none;stroke-dashoffset:0;stroke-opacity:1;paint-order:markers fill stroke;color-rendering:auto;image-rendering:auto;shape-rendering:auto;text-rendering:auto;enable-background:accumulate" />
          </g>
        </g>
      </g>
    </g>
  </g>
</svg>
